<?xml version="1.0" standalone="no"?><svg xmlns="http://www.w3.org/2000/svg" viewBox="0 0 1440 320"><path fill="#66d3fa" fill-opacity="1" d="M0,192L40,170.7C80,149,160,107,240,106.7C320,107,400,149,480,144C560,139,640,85,720,90.7C800,96,880,160,960,202.7C1040,245,1120,267,1200,250.7C1280,235,1360,181,1400,154.7L1440,128L1440,320L1400,320C1360,320,1280,320,1200,320C1120,320,1040,320,960,320C880,320,800,320,720,320C640,320,560,320,480,320C400,320,320,320,240,320C160,320,80,320,40,320L0,320Z"></path></svg>